<?xml version="1.0" encoding="utf-8"?>
<!-- Generator: Adobe Illustrator 28.0.0, SVG Export Plug-In . SVG Version: 6.00 Build 0)  -->
<svg version="1.1" id="Layer_1" xmlns="http://www.w3.org/2000/svg" xmlns:xlink="http://www.w3.org/1999/xlink" x="0px" y="0px"
	 viewBox="0 0 22 22" style="enable-background:new 0 0 22 22;" xml:space="preserve">
<style type="text/css">
	.st0{fill:#4AC6FE;}
</style>
<path class="st0" d="M22,11c0-0.8-0.3-1.5-0.7-2.1c-0.4-0.6-1-1.1-1.7-1.5c0.3-0.7,0.3-1.5,0.2-2.2c-0.2-0.7-0.5-1.4-1-2
	c-0.6-0.5-1.2-0.9-2-1c-0.7-0.2-1.5-0.1-2.2,0.2c-0.3-0.7-0.8-1.3-1.5-1.7S11.8,0,11,0c-0.8,0-1.5,0.2-2.1,0.7s-1.1,1-1.5,1.7
	C6.7,2.1,5.9,2,5.2,2.2c-0.7,0.2-1.4,0.5-2,1c-0.5,0.6-0.9,1.2-1,2C2,5.9,2.1,6.7,2.4,7.4C1.7,7.7,1.1,8.2,0.7,8.9S0,10.2,0,11
	c0,0.8,0.3,1.5,0.7,2.1c0.4,0.6,1,1.1,1.7,1.5c-0.3,0.7-0.3,1.5-0.2,2.2c0.2,0.7,0.5,1.4,1,2c0.6,0.5,1.2,0.9,2,1
	c0.7,0.2,1.5,0.1,2.2-0.2c0.3,0.7,0.8,1.3,1.5,1.7C9.5,21.7,10.2,22,11,22c0.8,0,1.5-0.2,2.1-0.7c0.6-0.4,1.1-1,1.5-1.7
	c0.7,0.3,1.5,0.3,2.2,0.2c0.7-0.2,1.4-0.5,2-1.1c0.5-0.5,0.9-1.2,1.1-2c0.2-0.7,0.1-1.5-0.2-2.2c0.7-0.3,1.3-0.8,1.7-1.5
	C21.7,12.5,22,11.8,22,11z M9.4,15.5l-4-4L6.9,10l2.4,2.4l5.2-5.6l1.6,1.5L9.4,15.5z"/>
</svg>
